<?xml version="1.0" encoding="UTF-8" standalone="no"?>
<!-- Created with Inkscape (http://www.inkscape.org/) -->

<svg
   xmlns:dc="http://purl.org/dc/elements/1.1/"
   xmlns:cc="http://creativecommons.org/ns#"
   xmlns:rdf="http://www.w3.org/1999/02/22-rdf-syntax-ns#"
   xmlns:svg="http://www.w3.org/2000/svg"
   xmlns="http://www.w3.org/2000/svg"
   xmlns:sodipodi="http://sodipodi.sourceforge.net/DTD/sodipodi-0.dtd"
   xmlns:inkscape="http://www.inkscape.org/namespaces/inkscape"
   width="744.09448819"
   height="1052.3622047"
   id="svg2"
   version="1.1"
   inkscape:version="0.48.4 r9939"
   sodipodi:docname="drawing.svg">
  <defs
     id="defs4" />
  <sodipodi:namedview
     id="base"
     pagecolor="#ffffff"
     bordercolor="#666666"
     borderopacity="1.0"
     inkscape:pageopacity="0.0"
     inkscape:pageshadow="2"
     inkscape:zoom="0.14918818"
     inkscape:cx="-2871.6929"
     inkscape:cy="181.22715"
     inkscape:document-units="px"
     inkscape:current-layer="layer1"
     showgrid="false"
     inkscape:window-width="1920"
     inkscape:window-height="1144"
     inkscape:window-x="-2"
     inkscape:window-y="-3"
     inkscape:window-maximized="1" />
  <metadata
     id="metadata7">
    <rdf:RDF>
      <cc:Work
         rdf:about="">
        <dc:format>image/svg+xml</dc:format>
        <dc:type
           rdf:resource="http://purl.org/dc/dcmitype/StillImage" />
        <dc:title></dc:title>
      </cc:Work>
    </rdf:RDF>
  </metadata>
  <g
     inkscape:label="Layer 1"
     inkscape:groupmode="layer"
     id="layer1">
    <rect
       style="fill:#ffffff;fill-opacity:1;stroke:none"
       id="rect3001"
       width="1500"
       height="1500"
       x="-3478.8279"
       y="571.20959"
       inkscape:export-filename="/home/vasil/workspace/Pravoslaven kalendar/icon.png"
       inkscape:export-xdpi="90"
       inkscape:export-ydpi="90" />
    <path
       style="font-size:medium;font-style:normal;font-variant:normal;font-weight:normal;font-stretch:normal;text-indent:0;text-align:start;text-decoration:none;line-height:normal;letter-spacing:normal;word-spacing:normal;text-transform:none;direction:ltr;block-progression:tb;writing-mode:lr-tb;text-anchor:start;baseline-shift:baseline;color:#000000;fill:#c70101;fill-opacity:1;stroke:none;stroke-width:50;marker:none;visibility:visible;display:inline;overflow:visible;enable-background:accumulate;font-family:Sans;-inkscape-font-specification:Sans"
       d="m -2956.9132,822.5736 c 0,60.79722 0,121.59445 0,182.3917 45.4807,0 90.9614,0 136.4421,0 0,29.4182 0,58.8365 0,88.2547 -45.4878,0.021 -90.9758,-0.054 -136.4634,0.064 -1e-4,45.3386 0,90.6772 0,136.0159 -29.5675,0 -59.1349,0 -88.7024,0 0,-45.3387 10e-5,-90.6773 0,-136.0159 -61.2447,0 -122.4895,0 -183.7343,0 0,61.2519 0,122.5038 0,183.7557 45.4807,0 90.9614,0 136.4421,0 0,29.4182 0,58.8364 0,88.2547 -45.4807,0 -90.9614,0 -136.4421,0 0,61.2519 0,122.5038 0,183.7557 61.2448,0 122.4896,0 183.7343,0 0,-45.3387 10e-5,-90.6773 0,-136.0159 29.5675,0 59.1349,0 88.7024,0 0.01,45.367 -0.015,90.7341 0.021,136.1011 45.4807,0 90.9614,0 136.4421,0 0,29.4182 0,58.8365 0,88.2547 -45.4807,1e-4 -90.9614,0 -136.4421,0 0,61.2519 0,122.5039 0,183.7557 61.2448,0 122.4896,0 183.7344,0 0,-45.3386 0,-90.6772 0,-136.0159 29.5674,0 59.1349,0 88.7023,0 0,45.36 -1e-4,90.7199 0,136.0799 61.2519,0 122.5037,0 183.7556,0 0,-61.2448 10e-5,-122.4896 0,-183.7344 -45.3386,0 -90.6772,0 -136.0158,0 0,-29.4466 0,-58.8933 0,-88.34 45.3386,0 90.6772,0 136.0158,0 10e-5,-45.3813 0,-90.7625 0,-136.1437 29.5604,0 59.1207,0 88.681,0 0,45.3599 0,90.7198 0,136.0797 61.2519,10e-5 122.5038,0 183.7557,0 0,-61.2447 0,-122.4895 0,-183.7343 -45.3386,0 -90.6772,0 -136.0159,0 0,-29.4466 0,-58.8933 0,-88.3399 45.3387,0 90.6773,0 136.0159,0 0,-61.2519 0,-122.5038 0,-183.7557 -61.2519,0 -122.5038,0 -183.7557,0 0,45.3457 0,90.6914 0,136.0371 -29.5603,0 -59.1206,0 -88.681,0 -0.01,-45.3457 0.015,-90.6914 -0.021,-136.0371 -45.3315,0 -90.6631,0 -135.9945,0 -1e-4,-29.4254 0,-58.8507 0,-88.2761 45.3385,0 90.6772,0 136.0158,0 0,-61.25186 0,-122.50375 0,-183.75564 -61.2519,0 -122.5038,0 -183.7557,0 0,45.33862 0,90.67724 0,136.01586 -29.5674,0 -59.1349,0 -88.7023,0 0,-45.33862 10e-5,-90.67724 0,-136.01586 -61.2447,0 -122.4895,0 -183.7343,0 l 0,0.682 0,0.68199 z m 135.9945,46.37582 c 0,29.42535 0,58.8507 0,88.27604 -29.4183,0 -58.8365,0 -88.2547,0 0,-29.42534 0,-58.85069 0,-88.27604 29.4182,0 58.8364,0 88.2547,0 z m 272.4579,0 c 10e-5,29.42535 0,58.8507 0,88.27604 -29.4253,0 -58.8506,0 -88.2759,0 -1e-4,-29.42534 0,-58.85069 0,-88.27604 29.4253,0 58.8506,0 88.2759,0 z m -136.0158,136.01588 c 0,29.4182 0,58.8365 0,88.2547 -29.4183,0 -58.8365,0 -88.2547,0 0,-29.4182 0,-58.8365 0,-88.2547 29.4182,0 58.8364,0 88.2547,0 z m 0,135.9945 c 0,45.36 0,90.7199 0,136.0798 45.4807,0 90.9614,0 136.4421,0 0,29.4041 0,58.8081 0,88.2121 -45.4807,0 -90.9614,0 -136.4421,0 0,45.3812 0,90.7625 0,136.1437 -29.5674,0 -59.1349,0 -88.7023,0 0,-45.367 10e-5,-90.734 0,-136.1011 -45.3386,0 -90.6772,0 -136.0158,0 0,-29.4182 -1e-4,-58.8364 0,-88.2547 45.3386,0 90.6772,0 136.0158,0 10e-5,-45.3599 0,-90.7198 0,-136.0798 29.5674,0 59.1349,0 88.7023,0 z m 408.4525,0.043 c 0,29.4254 0,58.8507 0,88.2761 -29.4253,0 -58.8507,0 -88.276,0 0,-29.4254 0,-58.8507 0,-88.2761 29.4253,0 58.8507,0 88.276,0 z m -817.3526,0.021 c 10e-5,29.4254 0,58.8507 0,88.2761 -29.4182,0 -58.8365,0 -88.2547,0 0,-29.4254 0,-58.8507 0,-88.2761 29.4182,0 58.8365,0 88.2547,0 z m 272.458,0 c 0,29.4041 0,58.8081 0,88.2121 -29.4183,0 -58.8365,0 -88.2547,0 0,-29.404 0,-58.808 0,-88.2121 29.4182,0 58.8364,0 88.2547,0 z m 272.4367,0.021 c 0,29.4112 0,58.8223 0,88.2334 -29.4183,0 -58.8365,0 -88.2547,0 0,-29.4111 -1e-4,-58.8222 0,-88.2334 29.4182,0 58.8364,0 88.2547,0 z m 136.4421,135.9519 c 0,29.4183 0,58.8365 0,88.2547 -29.4183,0 -58.8365,0 -88.2548,0 0,-29.4182 10e-5,-58.8364 0,-88.2547 29.4183,0 58.8365,0 88.2548,0 z m -544.8946,0.043 c -1e-4,29.4183 0,58.8365 0,88.2548 -29.4183,0 -58.8365,0 -88.2548,0 0,-29.4183 0,-58.8365 0,-88.2548 29.4183,0 58.8365,0 88.2548,0 z m -136.4422,135.9946 c 10e-5,29.4253 0,58.8507 0,88.276 -29.4182,0 -58.8365,0 -88.2547,0 0,-29.4253 0,-58.8507 0,-88.276 29.4182,0 58.8365,0 88.2547,0 z m 817.3526,0.043 c 0,29.4182 0,58.8365 0,88.2547 -29.4253,0 -58.8507,10e-5 -88.276,0 0,-29.4182 0,-58.8365 0,-88.2547 29.4253,0 58.8507,0 88.276,0 z m -544.8946,0.043 c 0,29.397 0,58.7939 0,88.1908 -29.4183,0 -58.8365,0 -88.2547,0 0,-29.3969 0,-58.7938 0,-88.1908 29.4182,0 58.8364,0 88.2547,0 z m 272.4367,0 c 0,29.3827 0,58.7655 0,88.1482 -29.4183,0 -58.8365,0 -88.2547,0 -1e-4,-29.3827 0,-58.7655 0,-88.1482 29.4182,0 58.8364,0 88.2547,0 z m -135.9946,136.0159 c 0,29.4182 0,58.8364 0,88.2547 -29.4183,0 -58.8365,0 -88.2547,0 0,-29.4183 0,-58.8365 0,-88.2547 29.4182,0 58.8364,0 88.2547,0 z m -136.4421,135.9945 c 0,29.4254 0,58.8507 0,88.2761 -29.4183,-10e-5 -58.8365,0 -88.2547,0 0,-29.4254 0,-58.8507 0,-88.2761 29.4182,10e-5 58.8364,0 88.2547,0 z m 272.4579,0.085 c 10e-5,29.4183 10e-5,58.8366 0,88.2548 -29.4253,0 -58.8506,0 -88.2759,0 0,-29.4182 0,-58.8365 0,-88.2548 29.4253,0 58.8506,10e-5 88.2759,0 z"
       id="rect2985"
       inkscape:connector-curvature="0"
       inkscape:export-filename="/home/vasil/workspace/Pravoslaven kalendar/icon.png"
       inkscape:export-xdpi="90"
       inkscape:export-ydpi="90" />
  </g>
</svg>
